<svg xmlns="http://www.w3.org/2000/svg" xmlns:svg="http://www.w3.org/2000/svg" xmlns:xlink="http://www.w3.org/1999/xlink" id="svg54" x="0" y="0" version="1.1" viewBox="0 0 299.9 278" xml:space="preserve" style="enable-background:new 0 0 299.9 278"><style type="text/css">.st0{fill:url(#_x31_19c09b6-486e-4d19-bf49-3c1bd30b32c4_1_)}.st1{fill:url(#_x32_121e319-b5ea-4f3e-b58f-78cc57c3b458_1_)}.st2{fill:url(#d9e58f9a-f387-41cf-9b16-b98b77325f2c_1_)}.st3{fill:url(#_x32_121e319-b5ea-4f3e-b58f-78cc57c3b458-9_1_)}.st4{fill:url(#_x32_121e319-b5ea-4f3e-b58f-78cc57c3b458-9-9_1_)}.st5{fill:url(#path981_1_)}</style><title id="title21">celix</title><g id="_x37_45bee40-f229-462a-927a-16f386dcc88e" transform="translate(7.5014166,0.00367791)"><linearGradient id="_x31_19c09b6-486e-4d19-bf49-3c1bd30b32c4_1_" x1="265.806" x2="123.766" y1="71.336" y2="72.585" gradientTransform="matrix(1 0 0 -1 4.8914 272.2463)" gradientUnits="userSpaceOnUse"><stop offset="0" style="stop-color:#013869"/><stop offset=".1" style="stop-color:#095081"/><stop offset=".28" style="stop-color:#1472a4"/><stop offset=".45" style="stop-color:#1d8dbf"/><stop offset=".63" style="stop-color:#23a0d3"/><stop offset=".81" style="stop-color:#27abde"/><stop offset="1" style="stop-color:#28afe2"/></linearGradient><path id="_x31_19c09b6-486e-4d19-bf49-3c1bd30b32c4" d="M292.3,196.6 c0.4,39.9-31.7,76-71,80.8c-44.1,5.4-83.2-23.1-91.3-66.8c-4.1-22.1,0.9-42.7,12.3-61.8c3.1-5.1,4.1-5,7.5,0.1 c8.9,13.4,13.9,28,13.7,44.2c-0.1,14.3,4.6,26.8,15,36.9c13.4,12.8,29.4,15.6,46.3,9.9c17.9-5.9,28.9-18.9,31.3-37.9 c2.6-20-4.7-35.9-21.9-46.9c-2.6-1.6-2.9-3.3-1.1-5.7c5.6-7.3,10.1-15.3,13.5-23.8c1.2-2.9,2.8-3.2,5.4-1.6 c11.2,6.8,20.5,16.2,27.2,27.4C288,165.5,292.7,180.8,292.3,196.6z" class="st0"/><linearGradient id="_x32_121e319-b5ea-4f3e-b58f-78cc57c3b458_1_" x1="54.688" x2="62.186" y1=".174" y2="158.722" gradientTransform="matrix(1 0 0 -1 -2.6065 269.747)" gradientUnits="userSpaceOnUse"><stop offset="0" style="stop-color:#013869"/><stop offset=".1" style="stop-color:#095081"/><stop offset=".28" style="stop-color:#1472a4"/><stop offset=".45" style="stop-color:#1d8dbf"/><stop offset=".63" style="stop-color:#23a0d3"/><stop offset=".81" style="stop-color:#27abde"/><stop offset="1" style="stop-color:#28afe2"/></linearGradient><path id="_x32_121e319-b5ea-4f3e-b58f-78cc57c3b458" d="M36.8,120.4 c25.5-13.2,52-12.7,78.4,1c5.1,2.7,5.2,3.4,1.7,8.3c-4.5,6-8.4,12.4-11.6,19.2c-2.5,5.6-3.2,5.8-8.6,2.8 c-28.1-15.8-67,2.5-68.7,40.3c-1.6,34.7,34.8,58.4,66.1,43.3c5.7-2.8,5.7-2.7,8.4,2.9c3.4,7.4,7.4,14.5,11.8,21.4 c2.2,3.3,1.5,5.2-1.8,6.6C82.4,279.3,53,279.1,25.9,259C-3.8,237-14.5,201.4-3,166.4C2.9,148.4,18,130.7,36.8,120.4z" class="st1"/><linearGradient id="d9e58f9a-f387-41cf-9b16-b98b77325f2c_1_" x1="125.715" x2="165.704" y1="232.288" y2="141.064" gradientTransform="matrix(1 0 0 -1 4.8914 272.2463)" gradientUnits="userSpaceOnUse"><stop offset="0" style="stop-color:#46b6ee"/><stop offset="1" style="stop-color:#023b6e"/></linearGradient><path id="d9e58f9a-f387-41cf-9b16-b98b77325f2c" d="M227.9,83.5 c-0.5,28.7-13.6,51.7-38.1,68.5c-4.8,3.2-5.5,3-8.1-2.4c-3.1-6.8-7-13.3-11.4-19.3c-3.7-4.8-3.6-5.6,1.6-8.9 c27.2-17.2,29.6-60.1-2.8-79.6c-29.8-17.9-68,2.9-69.5,37.6c-0.3,6.4-0.3,6.3-6.6,6c-8.1-0.5-16.3-0.4-24.5,0.3 c-3.9,0.4-5.3-1.2-4.9-4.7c3-32.7,17.1-58.5,47.6-72.8C144.5-7.6,181,0,206.3,26.7C219.4,40.4,227.8,62.1,227.9,83.5z" class="st2"/><radialGradient id="_x32_121e319-b5ea-4f3e-b58f-78cc57c3b458-9_1_" cx="76.574" cy="112.199" r="46.069" gradientTransform="matrix(1.7236 0.5935 0.6774 -1.9673 -135.6987 393.4535)" gradientUnits="userSpaceOnUse"><stop offset="0" style="stop-color:#46b6ee"/><stop offset="1" style="stop-color:#023b6e"/></radialGradient><path id="_x32_121e319-b5ea-4f3e-b58f-78cc57c3b458-9" d="M93.2,113.4 c-38.9,9.4-66.1,43.2-66.2,82c0,35.5,22.9,67.1,57.3,79.3c9.3-1.3,18.6-4,28.1-8.1c3.3-1.4,4-3.3,1.8-6.6 c-4.4-6.8-8.4-14-11.8-21.4c-2.7-5.7-2.7-5.7-8.4-2.9c-31.3,15.1-67.7-8.7-66.1-43.3c1.7-37.8,40.6-56,68.7-40.3 c5.4,3,6.1,2.8,8.6-2.8c3.2-6.8,7.1-13.2,11.6-19.2c3.5-4.9,3.4-5.7-1.7-8.3C107.8,117.9,100.5,115.1,93.2,113.4z" class="st3"/><radialGradient id="_x32_121e319-b5ea-4f3e-b58f-78cc57c3b458-9-9_1_" cx="136.44" cy="274.965" r="46.069" gradientTransform="matrix(-3.1679 -1.3804 -1.038 2.3821 912.0864 -363.0712)" gradientUnits="userSpaceOnUse"><stop offset="0" style="stop-color:#46b6ee"/><stop offset="1" style="stop-color:#023b6e"/></radialGradient><path id="_x32_121e319-b5ea-4f3e-b58f-78cc57c3b458-9-9" d="M207.4,136.8 c10.2-38.6-6.6-78.7-40.7-97.2c-31.2-16.8-70-11.7-97,12.8c-3.3,8.8-5.3,18.3-6.2,28.6c-0.3,3.6,1,5.1,4.9,4.7 c8.1-0.7,16.3-0.7,24.4-0.3c6.3,0.3,6.3,0.4,6.6-6c1.5-34.7,39.8-55.5,69.5-37.6c32.5,19.5,30,62.4,2.8,79.6 c-5.2,3.3-5.3,4-1.6,8.9c4.5,6,8.3,12.5,11.4,19.3c2.6,5.4,3.4,5.7,8.1,2.4C196.5,147.4,202.4,142.3,207.4,136.8L207.4,136.8z" class="st4"/><radialGradient id="path981_1_" cx="256.1" cy="257.55" r="78.92" gradientTransform="matrix(0.585 -1.2548 -1.5006 -0.6996 483.4304 689.7532)" gradientUnits="userSpaceOnUse"><stop offset="0" style="stop-color:#46b6ee"/><stop offset="1" style="stop-color:#023b6e"/></radialGradient><path id="path981" d="M249.6,123.1c-1.2,0-2.1,0.8-2.8,2.6 c-3.4,8.5-8,16.5-13.5,23.8c-1.8,2.4-1.4,4.1,1.1,5.7c17.2,11,24.5,26.9,21.9,46.9c-2.4,18.9-13.4,32-31.3,37.9 c-5.1,1.7-10.2,2.6-15.1,2.8c3.4,0.4,6.9,0.7,10.3,0.7c28.9,0,55.9-14.6,71.8-38.8c0.3-2.6,0.4-5.3,0.4-8 c0.3-15.8-4.4-31.1-12.9-45.2c-6.7-11.2-16-20.6-27.2-27.4C251.2,123.4,250.3,123.1,249.6,123.1z M146,145c-1.1,0-2.1,1.2-3.6,3.8 c-3.1,5.2-5.8,10.6-7.9,16.1c2.8,32.1,23.4,60,53.3,72.1c-3.2-1.9-6.2-4.2-9.2-7c-10.4-10-15.1-22.5-15-36.8 c0.2-16.2-4.8-30.8-13.7-44.2C148.2,146.4,147.1,145.1,146,145z" class="st5"/></g></svg>